<svg xmlns="http://www.w3.org/2000/svg" width="28" height="20"><defs><path id="a" d="M0 0h28v20H0z"/></defs><g fill-rule="evenodd"><path fill="#fff" d="M0 0h28v20H0z"/><mask id="b" fill="#fff"><use href="#a"/></mask><use fill="#fff" href="#a"/><path fill="#e54252" mask="url(#b)" d="M0 0h28v13.333H0z"/><path fill="#5cbe6b" mask="url(#b)" d="M0 13.333h28V20H0z"/><path fill="#fff" d="M4 17v3H0V0h4v3l-.667 1L4 5v2l-.667 1L4 9v2l-.667 1L4 13v2l-.667 1L4 17z" mask="url(#b)"/><path fill="#e54252" d="m-2 4 1.333-2L.667 4-.667 6-2 4zm0 4 1.333-2L.667 8l-1.334 2L-2 8zm0 4 1.333-2 1.333 2-1.333 2L-2 12zm0 4 1.333-2 1.333 2-1.333 2L-2 16zM.667 2 2 0l1.333 2L2 4 .667 2zm0 4L2 4l1.333 2L2 8 .667 6zm0 4L2 8l1.333 2L2 12 .667 10zm0 4L2 12l1.333 2L2 16 .667 14zm0 4L2 16l1.333 2L2 20 .667 18z" mask="url(#b)"/></g></svg>