<svg xmlns="http://www.w3.org/2000/svg" width="28" height="20"><defs><path id="a" d="M0 0h28v20H0z"/></defs><g fill-rule="evenodd"><path fill="#fff" d="M0 0h28v20H0z"/><mask id="b" fill="#fff"><use href="#a"/></mask><use fill="#fff" href="#a"/><path fill="#ff2b37" d="M12 8v-9.333h4V8h13.333v4H16v9.333h-4V12H-1.333V8H12z" mask="url(#b)"/><path fill="#fd0d1b" d="M21.6 3.6 21.333 2h1.333L22.4 3.6l1.6-.267v1.333L22.4 4.4l.267 1.6h-1.333l.267-1.6-1.6.267V3.333l1.6.267zm-16 0L5.333 2h1.333L6.4 3.6 8 3.333v1.333L6.4 4.4 6.667 6H5.333L5.6 4.4 4 4.667V3.333l1.6.267zm0 12L5.333 14h1.333L6.4 15.6l1.6-.267v1.333L6.4 16.4l.267 1.6H5.333l.267-1.6-1.6.267v-1.333l1.6.267zm16 0-.267-1.6h1.333l-.267 1.6 1.6-.267v1.333l-1.6-.267.267 1.6h-1.333l.267-1.6-1.6.267v-1.333l1.6.267z" mask="url(#b)"/></g></svg>