<svg xmlns="http://www.w3.org/2000/svg" width="28" height="20"><defs><path id="a" d="M0 0h28v20H0z"/></defs><g fill-rule="evenodd"><path fill="#fff" d="M0 0h28v20H0z"/><mask id="b" fill="#fff"><use href="#a"/></mask><use fill="#fff" href="#a"/><path fill="#04aac8" mask="url(#b)" d="M0 0h28v6.667H0z"/><path fill="#23c840" mask="url(#b)" d="M0 13.333h28V20H0z"/><path fill="#fff" d="m5.778 1.67-.11-.004A1.668 1.668 0 0 0 5.667 5l.11-.004a1.99 1.99 0 0 1-1.111.337 2 2 0 1 1 0-4 1.99 1.99 0 0 1 1.111.337zm1.555 3.663a.667.667 0 1 1 0-1.336.667.667 0 0 1 0 1.337zM10 2.667a.667.667 0 1 1 0-1.334.667.667 0 0 1 0 1.334zm2.667 0a.667.667 0 1 1 0-1.334.667.667 0 0 1 0 1.334zm0 2.667a.667.667 0 1 1 0-1.334.667.667 0 0 1 0 1.334zm-2.667 0A.667.667 0 1 1 10 4a.667.667 0 0 1 0 1.334z" mask="url(#b)"/></g></svg>